<?xml version="1.0" encoding="UTF-8"?>
<svg id="Layer_1" data-name="Layer 1" xmlns="http://www.w3.org/2000/svg" viewBox="0 0 796.1 228.28">
  <defs>
    <style>
      .cls-1 {
        fill: #87a29b;
        stroke: #231f20;
        stroke-miterlimit: 10;
        stroke-width: 3px;
      }
    </style>
  </defs>
  <path class="cls-1" d="M449.84,51.35c-7.49,5.6-20.48.03-30.31,1.92-8.75.89-18.35,7.69-16.31,18.08,3.97,17.57,26.35,26.52,38.73,37.9,7.41,6.24,13.94,13.56,18.57,21.84,12.48,21.41,10.44,49.58-4.59,68.78-21.63,27.75-61.26,32.01-91.95,21.95-12.73-4.12-20.63-17.12-20.75-31.05,0-11.01,5.97-17.52,15.57-16.29,7.76.77,16.19,3.3,24.22,3.46,28.96.92,40.65-17.15,16.16-37.94-13.84-12.07-31.06-20.91-41.13-37.18-18.03-28.33-12.09-73.12,17.45-89.72,12.15-7.19,26.56-9.75,40.71-9.25,12.1.67,24.44,2.33,31.89,11.33,7.58,9.44,11.27,27.41,1.82,36.11l-.08.07Z"/>
  <path class="cls-1" d="M181.75,216.74c-18.22-16.16-9.44-52.16-54.44-43.55-20.44,4.3-40.5,15.14-57.33,28.26-13.48,10.84-28.92,21.48-46.41,21.16-7.35-.17-15.53-2.79-19.69-9.44-5.28-8.23-.62-23.31,3.43-33.17,20.14-46.98,43.31-93.36,68.48-137.46C90.39,16.63,113.2-5.99,143.54,3.85c18.28,6.44,28.48,21.15,33.94,39.56,6.3,18.88,13.98,43.12,22.06,72.84,7.62,30.03,15.05,57.16,15.94,84.54-.06,6.45-1.97,12.87-6.89,16.84-7.15,6.23-19.26,6.17-26.72-.79l-.12-.1ZM76.77,145.56c1.96,6.8,16.16-1.31,23.07-4.07,4.06-1.84,8.18-3.65,12.22-5.19,6.32-2.44,12.57-4.43,18.89-6.25,13.35-3.87,19.2-4.59,18.67-15.2-.83-10.43-3.99-19.97-6.86-30.46-3.03-9.51-6.66-24.39-14.34-28-9.33-3.12-17.7,14.64-21.93,21.93-6.85,12.84-13.58,25.95-20.21,38.99-3.49,7.44-10.77,20.42-9.52,28.17l.02.08Z"/>
  <path class="cls-1" d="M235.25,216.19c-10.01-9.34-5.16-36.41-6.43-50.68-.18-33.1-2.2-67.02,0-99.91.77-8.83,2.31-17.71,5.54-25.86,8.06-21.79,28.51-32.82,49.92-34.66,20-2.05,47.39-4.95,46.76,24.13-.53,27.26-31.52,17-45.21,30.23-8.75,9.5-11.53,28.16-2.99,38.32,9.03,9.81,24.84,4.44,34.4,12.95,7.87,7.47,7.76,25.02,2.14,33.62-4.68,7.13-14.3,7.69-22.07,8.52-9.68.41-18.76,4.97-19.55,16.21-3.47,14.78,5.56,46.29-12.58,51.88-9.29,2.8-22.34,1.87-29.84-4.67l-.1-.09Z"/>
  <path class="cls-1" d="M752.72,217.33c-10.26-6.48-11.82-20.92-21.53-27.59-9.2-6.15-20.93-5.87-31.54-6.1-13.21.19-25.61-.25-33.24,11.35-3.73,5.64-5.8,12.55-10.12,17.83-9.16,12.27-33.81,13.88-42.94,3.01-4.71-6.58-1.98-16.23-.3-24.24,13.05-50.46,25.71-101.24,40.59-151.16,4.36-12.51,11.28-24.45,22.38-31.07,20.97-12.8,49.87-5.32,61.94,17.43,6.23,10.69,9.86,23.55,13.69,35.77,12.78,41.25,26.64,82.45,38.61,123.92,2.12,8.84,7.54,22.03,1.69,29.89-8.69,9.72-28.54,7.84-39.11,1.06l-.13-.09ZM719.17,140c4.19-5.77,1.7-12.81-.52-22.92-1.93-7.6-4.41-16.55-6.75-25.34-1.99-7.39-3.89-14.53-5.61-20.36-1.78-5.41-3.64-13.64-6.54-14.9-2.45-.08-3.74,5.41-4.69,7.76-3.67,11.41-9.21,34.24-13.09,49.09-1.61,8.15-7.03,22.38.37,27.99,7.2,5.58,30.71,5.8,36.74-1.24l.07-.09Z"/>
  <path class="cls-1" d="M586.03,51.39c-2.07,1.62-4.64,2.25-7.22,2.41-6.3.4-15.87-1.73-23.4-.6-18.99,2.69-22.58,17.85-8.11,31.96,7.55,7.53,16.88,13.05,25.31,19.48,13.92,10.25,25.36,23.24,29.71,40.82,2.53,9.87,2.81,20.68.9,30.71-5.26,32.15-34.79,49.69-65.46,50.44-15.06.33-37.75-.72-47.11-14.65-6.77-9.33-9.77-28.97.75-35.35,6.26-3.28,14.2-.59,21.16.16,11.08,2.13,28.74.46,33.89-9.6,7.48-16.55-16.83-30.73-28-39.24-12.8-9.19-24.74-20.25-30.88-35.57-11.64-28.33-2.66-65.02,23.49-79.47,12.28-7.14,26.77-9.68,41.04-9.2,12.26.67,24.77,2.33,32.26,11.52,7.44,9.31,11.12,27.61,1.75,36.12l-.08.07Z"/>
</svg>